<svg xmlns="http://www.w3.org/2000/svg" viewBox="0 0 960 540"><rect width="960" height="540" fill="#0b1b29"/><g stroke="#17364e" opacity=".65"><path d="M0 90h960M0 180h960M0 270h960M0 360h960M0 450h960M120 0v540M240 0v540M360 0v540M480 0v540M600 0v540M720 0v540M840 0v540"/></g><g fill="none" stroke="#328df0" stroke-width="10" stroke-linejoin="round"><path d="M220 390h520l-45 70H265l-45-70ZM260 305h440v85H260z"/></g><g fill="none" stroke="#4caf50" stroke-width="8" stroke-linecap="round"><path d="M360 305v-80m0 35c-45 0-55-35-55-55 45 0 55 35 55 55Zm0 0c45 0 55-35 55-55-45 0-55 35-55 55ZM500 305v-105m0 40c-45 0-55-35-55-55 45 0 55 35 55 55Zm0 0c45 0 55-35 55-55-45 0-55 35-55 55ZM630 305v-65m0 25c-35 0-45-28-45-45 35 0 45 28 45 45Z"/></g></svg>
