<svg xmlns="http://www.w3.org/2000/svg" viewBox="0 0 960 540"><rect width="960" height="540" fill="#0b1b29"/><g stroke="#17364e" opacity=".65"><path d="M0 90h960M0 180h960M0 270h960M0 360h960M0 450h960M120 0v540M240 0v540M360 0v540M480 0v540M600 0v540M720 0v540M840 0v540"/></g><g fill="none" stroke="#328df0" stroke-width="10" stroke-linecap="round" stroke-linejoin="round"><path d="M270 140h420l-160 180v90l-100 45V320L270 140Z"/><path d="M340 210h280M380 265h200"/></g><g fill="#4caf50"><circle cx="410" cy="110" r="13"/><circle cx="480" cy="85" r="13"/><circle cx="550" cy="115" r="13"/></g></svg>
