<svg xmlns="http://www.w3.org/2000/svg" viewBox="0 0 960 540"><rect width="960" height="540" fill="#0b1b29"/><g stroke="#17364e" opacity=".65"><path d="M0 90h960M0 180h960M0 270h960M0 360h960M0 450h960M120 0v540M240 0v540M360 0v540M480 0v540M600 0v540M720 0v540M840 0v540"/></g><path d="M300 180h360v210c0 45-36 80-80 80H380c-44 0-80-35-80-80V180Z" fill="none" stroke="#328df0" stroke-width="10"/><path d="M320 305c75-45 145 45 220 0 45-27 80-12 100 0" fill="none" stroke="#4caf50" stroke-width="9"/><path d="M480 80s70 80 70 135a70 70 0 1 1-140 0c0-55 70-135 70-135Z" fill="none" stroke="#328df0" stroke-width="10"/></svg>
